<svg xmlns="http://www.w3.org/2000/svg" width="96" height="96" viewBox="0 0 48 48">
	<path
		fill="currentColor"
		d="M11.5 6C8.48 6 6 8.48 6 11.5v25c0 3.02 2.48 5.5 5.5 5.5h25c3.02 0 5.5-2.48 5.5-5.5v-25C42 8.48 39.52 6 36.5 6h-25zm0 3h25c1.398 0 2.5 1.102 2.5 2.5v25c0 1.398-1.102 2.5-2.5 2.5H30V29h3.625c.504 0 .93-.377.992-.877l.375-3A1 1 0 0 0 34 24h-4v-3.5c0-1.103.897-2 2-2h2a1 1 0 0 0 1-1v-3.375a1 1 0 0 0-.91-.996c-.06-.005-1.47-.129-3.256-.129C26.427 13 24 15.616 24 20.367V24h-4a1 1 0 0 0-1 1v3a1 1 0 0 0 1 1h4v10H11.5A2.478 2.478 0 0 1 9 36.5v-25C9 10.102 10.102 9 11.5 9z" />
</svg>
