<svg width="256" height="256" version="1.1" xmlns="http://www.w3.org/2000/svg">
	<style>
		path { fill: #000000; }
		@media (prefers-color-scheme: light) {
		path { fill: #ffffff; }
		}
	</style>
	<path
		d="m255.74 98.499a5.2 5.2 0 0 0-4.1466-3.504l-82.226-12.005-36.762-75.03c-1.7413-3.5014-7.4746-3.5014-9.216 0l-36.762 75.03-82.226 12.005a5.2 5.2 0 0 0-4.1466 3.504 5.2054 5.2054 0 0 0 1.28 5.3066l59.546 58.384-14.08 82.448c-0.30666 1.9067 0.46132 3.8666 2.048 5.0506a5.0774 5.0774 0 0 0 5.376 0.35999l73.574-38.906 73.574 38.906c0.71732 0.41336 1.536 0.61867 2.3546 0.61867a5.28 5.28 0 0 0 3.0214-0.97866 5.264 5.264 0 0 0 2.048-5.0506l-14.08-82.448 59.546-58.382c1.3813-1.392 1.8933-3.4026 1.28-5.3066z"
		stroke-width="2.6666" />
</svg>
